<svg width="25" height="25" viewBox="0 0 25 25" fill="none" xmlns="http://www.w3.org/2000/svg">
<g clip-path="url(#clip0_215_3006)">
<path d="M24.0918 1.20115L19.0137 0.0292756C18.4619 -0.0976775 17.8955 0.190408 17.6709 0.707987L15.3271 6.17674C15.1221 6.65525 15.2588 7.21678 15.6641 7.54392L18.623 9.9658C16.8652 13.7109 13.7939 16.8261 9.97069 18.6181L7.54882 15.6592C7.21679 15.2539 6.66015 15.1172 6.18163 15.3222L0.71288 17.666C0.19042 17.8955 -0.0976665 18.4619 0.0292867 19.0136L1.20116 24.0918C1.32323 24.6191 1.79198 25 2.34374 25C14.8486 25 25 14.8681 25 2.34373C25 1.79685 24.624 1.32322 24.0918 1.20115Z" fill="#634D4D"/>
</g>
<defs>
<clipPath id="clip0_215_3006">
<rect width="25" height="25" fill="white"/>
</clipPath>
</defs>
</svg>
