<svg width="53" height="37" viewBox="0 0 53 37" fill="none" xmlns="http://www.w3.org/2000/svg">
<path d="M0.75 8.31H10.14C10.46 8.31 10.72 8.42 10.92 8.64C11.12 8.86 11.22 9.15 11.22 9.51V30H8.07C7.39 30 6.94 29.89 6.72 29.67C6.52 29.45 6.42 28.99 6.42 28.29V12.06H1.62C1.04 12.06 0.75 11.58 0.75 10.62V8.31ZM12.42 8.31H17.22C17.8 8.31 18.09 8.79 18.09 9.75V12.06H12.42V8.31ZM20.0798 15.03H21.9098C22.7898 15.03 23.4498 15.25 23.8898 15.69C24.3498 16.11 24.5798 16.66 24.5798 17.34V30H21.1598C20.8398 30 20.5798 29.89 20.3798 29.67C20.1798 29.45 20.0798 29.16 20.0798 28.8V15.03ZM20.2898 8.64C20.5098 8.42 21.1498 8.31 22.2098 8.31C23.2698 8.31 23.9098 8.42 24.1298 8.64C24.3498 8.84 24.4598 9.44 24.4598 10.44C24.4598 11.44 24.3398 12.05 24.0998 12.27C23.8798 12.49 23.2498 12.6 22.2098 12.6C21.1698 12.6 20.5298 12.49 20.2898 12.27C20.0698 12.05 19.9598 11.44 19.9598 10.44C19.9598 9.44 20.0698 8.84 20.2898 8.64ZM35.6393 29.76C35.6393 29.88 35.5793 29.96 35.4593 30H33.1793C31.7193 30 30.6593 29.71 29.9993 29.13C29.3393 28.55 29.0093 27.53 29.0093 26.07V17.31H27.4793C26.9793 17.31 26.7293 17.01 26.7293 16.41V15H29.0093V8.31H30.8393C31.7193 8.31 32.3793 8.53 32.8193 8.97C33.2793 9.41 33.5093 9.97 33.5093 10.65V26.61C33.5093 27.35 33.9293 27.72 34.7693 27.72H35.3993C35.5593 27.72 35.6393 27.79 35.6393 27.93V29.76ZM36.5693 15V16.41C36.5693 17.01 36.3193 17.31 35.8193 17.31H34.2593V15H36.5693ZM43.8769 15H46.7869C47.5469 15 48.1669 15.04 48.6469 15.12C49.1269 15.18 49.5469 15.33 49.9069 15.57C50.2669 15.81 50.5369 16.08 50.7169 16.38C50.8969 16.66 51.0369 17.12 51.1369 17.76C51.2969 18.66 51.3769 19.92 51.3769 21.54C51.3769 23.16 51.3669 24.26 51.3469 24.84C51.3269 25.4 51.2869 26 51.2269 26.64C51.1869 27.28 51.0969 27.75 50.9569 28.05C50.8369 28.35 50.6669 28.66 50.4469 28.98C50.2469 29.28 49.9769 29.49 49.6369 29.61C48.8969 29.87 47.9469 30 46.7869 30H46.7269V18.69C46.7269 18.65 46.7269 18.53 46.7269 18.33C46.7269 18.13 46.7169 17.96 46.6969 17.82C46.5969 17.44 46.1969 17.25 45.4969 17.25H43.8769V15ZM42.9769 15V26.31C42.9769 26.35 42.9769 26.47 42.9769 26.67C42.9769 26.87 42.9969 27.04 43.0369 27.18C43.1169 27.56 43.5069 27.75 44.2069 27.75H45.8269V30H42.9169C42.1569 30 41.5369 29.97 41.0569 29.91C40.5769 29.83 40.1569 29.67 39.7969 29.43C39.4369 29.19 39.1669 28.93 38.9869 28.65C38.8069 28.35 38.6569 27.88 38.5369 27.24C38.3969 26.34 38.3269 25.08 38.3269 23.46C38.3269 21.84 38.3369 20.75 38.3569 20.19C38.3769 19.61 38.4069 19 38.4469 18.36C38.5069 17.72 38.5969 17.25 38.7169 16.95C38.8569 16.65 39.0269 16.35 39.2269 16.05C39.4469 15.73 39.7269 15.51 40.0669 15.39C40.8069 15.13 41.7569 15 42.9169 15H42.9769Z" fill="black"/>
</svg>
